<svg xmlns="http://www.w3.org/2000/svg" width="1200" height="334" viewBox="0 0 1200 334" version="1.1"><path d="M 814.601 2.980 C 804.331 7.107, 795.498 16.264, 787.938 30.623 C 785.245 35.738, 782.274 50.544, 781.743 61.500 L 781.500 66.500 750.388 66.764 L 719.275 67.028 718.634 72.264 C 718.281 75.144, 717.320 90.100, 716.498 105.500 C 715.120 131.329, 714.151 146.825, 711.934 178.500 C 711.472 185.100, 710.637 197.025, 710.079 205 C 709.521 212.975, 708.612 225.575, 708.059 233 C 707.153 245.174, 705.598 271.171, 703.154 315 C 702.679 323.525, 702.477 330.838, 702.704 331.250 C 702.932 331.663, 757.800 332, 824.633 332 L 946.149 332 945.504 316.750 C 944.741 298.662, 941.172 242.675, 939.083 216 C 937.696 198.294, 936.261 174.956, 935.023 150 C 933.917 127.687, 932.581 108.024, 930.947 90 C 930.423 84.225, 929.996 76.688, 929.997 73.250 L 930 67 897.371 67 L 864.743 67 865.444 56.181 C 866.611 38.167, 863.751 25.023, 856.509 15.120 C 853.625 11.176, 846.979 5.631, 843 3.851 C 840.525 2.743, 837.719 1.423, 836.764 0.918 C 833.183 -0.975, 821.812 0.083, 814.601 2.980 M 819.500 8.369 C 814.738 10.164, 805.096 16.355, 804.499 18 C 804.199 18.825, 802.239 21.424, 800.142 23.776 C 794.930 29.622, 788.969 47.468, 788.987 57.168 C 789.008 67.967, 785.717 67, 822.452 67 C 853.868 67, 854.738 66.947, 856.579 64.913 C 858.237 63.080, 858.470 61.137, 858.484 48.963 C 858.495 39.188, 858.131 34.732, 857.250 33.850 C 856.563 33.163, 856 31.488, 856 30.130 C 856 27.154, 849.173 16.219, 846.842 15.462 C 845.931 15.166, 844.936 14.276, 844.632 13.483 C 844.328 12.691, 841.727 10.908, 838.852 9.521 C 833.139 6.765, 825.036 6.283, 819.500 8.369 M 794.042 79.282 C 794.019 80.262, 794.634 82.583, 795.410 84.438 C 796.632 87.364, 796.625 88.091, 795.353 89.906 C 793.221 92.951, 791.648 92.497, 789.193 88.130 C 786.072 82.577, 784.345 81.337, 783.489 84.034 C 782.459 87.281, 783.851 92.850, 785.977 93.988 C 790.542 96.431, 798.007 94.475, 799.890 90.343 C 801.564 86.669, 801.302 85.676, 797.542 81.417 C 794.984 78.520, 794.072 77.964, 794.042 79.282 M 846.484 81.201 C 844.250 83.856, 843.881 85.075, 844.319 88.345 C 845.052 93.809, 848.731 95.836, 855.582 94.551 C 860.182 93.688, 862.572 88.940, 860.869 84.053 C 859.971 81.477, 859.529 81.146, 858.325 82.145 C 857.524 82.810, 856.211 84.625, 855.408 86.177 C 853.833 89.224, 851.530 89.718, 848.750 87.608 C 846.611 85.984, 846.570 85.287, 848.500 83.357 C 849.832 82.025, 850.651 78, 849.589 78 C 849.363 78, 847.966 79.441, 846.484 81.201 M 120.471 117.222 C 120.202 117.925, 120.099 148.875, 120.241 186 L 120.500 253.500 134.750 253.777 L 149 254.055 149 224.994 C 149 196.008, 149.006 195.921, 151.476 191.217 C 155.647 183.271, 156.230 182.832, 163.355 182.260 C 172.579 181.519, 174.471 182.244, 177.714 187.760 L 180.500 192.500 181 223 L 181.500 253.500 195.250 253.778 L 209 254.056 209.027 220.278 C 209.053 187.917, 208.958 186.190, 206.777 179.121 C 202.674 165.824, 194.053 159.915, 178.588 159.801 C 168.020 159.723, 161.678 162.129, 154.766 168.840 L 149.031 174.406 148.766 145.453 L 148.500 116.500 134.729 116.222 C 124.265 116.010, 120.842 116.250, 120.471 117.222 M 241.676 117.677 C 240.124 117.936, 237.086 119.914, 234.926 122.074 C 231.395 125.605, 231 126.507, 231 131.050 C 231 139.512, 234.017 143.313, 242.747 145.846 C 246.001 146.790, 247.989 146.811, 251.247 145.936 C 253.586 145.307, 255.725 144.502, 256 144.147 C 256.275 143.791, 257.400 143.009, 258.500 142.409 C 261.011 141.040, 263.889 135.387, 263.952 131.700 C 264.067 124.989, 257.196 118.372, 249.366 117.653 C 246.690 117.408, 243.229 117.419, 241.676 117.677 M 54 122.931 C 47.598 123.843, 40.500 126.396, 33.624 130.260 C 30.942 131.767, 28.420 133, 28.019 133 C 26.388 133, 14.036 145.933, 9.873 152 C 7.420 155.575, 4.600 161.200, 3.607 164.500 C 2.613 167.800, 1.396 171.281, 0.900 172.236 C 0.405 173.191, -0 181.711, -0 191.168 C -0 207.036, 0.199 208.948, 2.582 215.932 C 5.841 225.481, 6.969 227.876, 9.679 230.993 C 10.878 232.372, 12.782 234.625, 13.911 236 C 17.110 239.898, 17.555 240.366, 20.128 242.545 C 23.943 245.775, 31.768 251, 32.791 251 C 33.303 251, 37.267 252.125, 41.599 253.500 C 48.652 255.738, 51.099 255.993, 64.988 255.933 C 78.685 255.874, 81.611 255.552, 90 253.175 L 99.500 250.484 99.778 236.742 C 99.931 229.184, 99.776 223, 99.433 223 C 99.089 223, 97.614 223.822, 96.154 224.828 C 90.735 228.558, 80.073 231, 69.200 231 C 60.091 231, 58.264 230.686, 52.714 228.170 C 45.933 225.095, 37.227 217.342, 35.118 212.500 C 31.200 203.507, 30.581 200.282, 30.607 189 C 30.629 179.587, 31.006 176.684, 32.680 173 C 33.805 170.525, 35.125 167.505, 35.613 166.288 C 37.210 162.305, 47.875 152.186, 51.260 151.443 C 53.006 151.059, 55.124 150.383, 55.967 149.939 C 58.623 148.542, 66.714 146.999, 71.193 147.035 C 76.880 147.082, 92.649 150.671, 96.708 152.844 C 97.896 153.480, 99.136 154, 99.462 154 C 99.789 154, 99.931 147.826, 99.778 140.280 L 99.500 126.560 94.645 124.759 C 89.125 122.710, 63.604 121.563, 54 122.931 M 1174 143.956 C 1173.175 144.417, 1167.888 146.268, 1162.250 148.067 L 1152 151.340 1152 161.170 L 1152 171 1143.965 171 L 1135.930 171 1136.215 181.250 L 1136.500 191.500 1144.126 191.790 L 1151.752 192.080 1152.267 218.790 C 1152.710 241.748, 1153.043 246.138, 1154.641 250.045 C 1157.267 256.463, 1159.703 259.137, 1166 262.507 C 1171.120 265.248, 1172.260 265.453, 1182.500 265.476 C 1189.623 265.491, 1194.645 265.017, 1196.750 264.129 L 1200 262.757 1200 252.311 C 1200 241.903, 1199.992 241.868, 1197.750 242.683 C 1196.513 243.132, 1193.563 243.443, 1191.195 243.373 C 1181.765 243.094, 1179.731 237.019, 1180.189 210.500 L 1180.500 192.500 1190.250 192.214 L 1200 191.928 1200 181.500 L 1200 171.072 1190.250 170.786 L 1180.500 170.500 1180.222 156.750 C 1179.949 143.272, 1179.900 143.001, 1177.722 143.059 C 1176.500 143.091, 1174.825 143.495, 1174 143.956 M 761.241 155.817 C 760.250 156.456, 760.037 167.984, 760.241 210.064 L 760.500 263.500 772 263.500 L 783.500 263.500 783.795 227.500 L 784.090 191.500 787.106 199.500 C 788.766 203.900, 790.957 209.525, 791.977 212 C 792.996 214.475, 795.258 220.775, 797.004 226 C 805.646 251.867, 808.439 259.687, 809.774 261.750 C 811.122 263.833, 811.963 264, 821.092 264 C 832.554 264, 832.735 263.865, 835.462 253.220 C 836.346 249.766, 837.561 245.716, 838.160 244.220 C 838.759 242.724, 839.589 240.600, 840.005 239.500 C 840.420 238.400, 841.452 235.700, 842.297 233.500 C 843.141 231.300, 845.019 225.675, 846.470 221 C 847.921 216.325, 850.254 209.575, 851.655 206 C 853.056 202.425, 854.719 197.400, 855.352 194.833 C 855.984 192.266, 856.726 189.940, 857.001 189.665 C 857.275 189.389, 857.360 204.964, 857.190 224.275 C 857.019 243.585, 857.144 260.437, 857.466 261.722 C 858.048 264.038, 858.171 264.057, 870.777 263.780 L 883.500 263.500 883.759 210.064 C 883.963 167.979, 883.750 156.459, 882.759 155.830 C 880.592 154.454, 849.592 154.827, 847.861 156.250 C 847.024 156.938, 845.770 159.525, 845.074 162 C 843.922 166.098, 839.941 177.563, 837.957 182.500 C 837.514 183.600, 836.247 187.425, 835.139 191 C 834.032 194.575, 831.728 201.100, 830.019 205.500 C 828.311 209.900, 825.890 217.271, 824.640 221.881 L 822.367 230.262 818.625 218.381 C 816.567 211.846, 813.530 202.900, 811.876 198.500 C 810.222 194.100, 807.733 186.900, 806.345 182.500 C 803.555 173.655, 802.373 170.359, 798.814 161.500 L 796.403 155.500 779.452 155.252 C 770.128 155.116, 761.934 155.370, 761.241 155.817 M 338.500 160.062 C 328.050 162.069, 325.666 163.128, 320.612 168.008 L 315.500 172.944 315.200 167.472 L 314.900 162 299.950 162 L 285 162 285 229.527 L 285 297.053 299.750 296.777 L 314.500 296.500 314.767 270.777 L 315.034 245.053 317.875 248.027 C 319.438 249.662, 321.198 251, 321.787 251 C 322.376 251, 323.452 251.568, 324.179 252.262 C 327.043 254.997, 331.428 256, 340.517 256 C 348.445 256, 350.808 255.603, 355.406 253.500 C 358.412 252.125, 361.248 251, 361.707 251 C 362.167 251, 364.783 248.489, 367.521 245.419 C 370.260 242.349, 373.063 239.232, 373.750 238.490 C 374.438 237.749, 375 236.841, 375 236.473 C 375 236.104, 375.622 234.384, 376.383 232.651 C 380.966 222.206, 382.175 215.609, 381.730 203.477 C 381.321 192.315, 380.558 188.210, 377.738 181.985 C 376.869 180.068, 375.881 177.528, 375.541 176.341 C 374.465 172.581, 363.892 163.079, 360 162.373 C 358.075 162.025, 356.050 161.410, 355.500 161.007 C 353.901 159.836, 342.869 159.222, 338.500 160.062 M 455.500 159.671 C 446.569 160.836, 440.747 163.470, 435.494 168.724 C 432.592 171.626, 429.943 174, 429.609 174 C 429.274 174, 429 171.300, 429 168 L 429 162 414.493 162 L 399.986 162 400.243 229.250 L 400.500 296.500 414.750 296.777 L 429 297.055 429 271.027 C 429 256.712, 429.316 245, 429.702 245 C 430.089 245, 431.776 246.296, 433.452 247.879 C 435.129 249.462, 438.653 251.937, 441.285 253.379 C 445.490 255.682, 447.213 256, 455.470 256 C 463.390 256, 465.862 255.582, 471.184 253.344 C 478.970 250.070, 487.349 241.703, 491.851 232.707 C 498.358 219.703, 498.459 190.779, 492.039 178.574 C 487.585 170.108, 480.636 163.830, 473.483 161.812 C 466.715 159.902, 459.924 159.094, 455.500 159.671 M 550.500 160.030 C 541.505 161.412, 536.815 163.016, 531.549 166.511 C 522.136 172.759, 517.442 179.115, 513.671 190.715 C 511.487 197.432, 511 200.793, 511 209.144 C 511 214.762, 511.524 220.965, 512.164 222.929 C 516.523 236.294, 517.271 237.749, 522.592 243.198 C 527.455 248.179, 530.439 250.127, 537.500 252.929 C 543.760 255.414, 547.856 256.003, 559.071 256.035 C 569.720 256.064, 572.896 255.671, 581.250 253.291 L 591 250.513 591 240.256 C 591 234.615, 590.792 230, 590.538 230 C 590.283 230, 587.696 230.829, 584.788 231.843 C 573.877 235.646, 572.178 236, 564.849 236 C 554.155 236, 546.479 232.817, 542.815 226.863 C 541.338 224.463, 539.988 221.150, 539.815 219.500 L 539.500 216.500 569.500 216 L 599.500 215.500 599.438 205 C 599.371 193.694, 596.719 182.470, 592.704 176.500 C 588.895 170.837, 580.848 164.031, 576.605 162.884 C 574.347 162.275, 571.375 161.410, 570 160.964 C 566.031 159.676, 555.951 159.193, 550.500 160.030 M 662.500 161.229 C 660.850 161.789, 658.516 162.618, 657.313 163.073 C 655.377 163.805, 649.651 170.332, 646.309 175.616 C 645.325 177.171, 645.107 176.148, 645.059 169.750 L 645 162 630.490 162 L 615.980 162 616.240 207.750 L 616.500 253.500 630.750 253.777 L 645 254.055 645 228.556 C 645 203.864, 645.075 202.890, 647.375 197.779 C 650.336 191.196, 655.571 186.123, 660.628 184.934 C 664.687 183.980, 672.269 184.617, 675.250 186.163 C 676.870 187.003, 677 186.180, 677 175.117 C 677 168.543, 676.727 162.452, 676.393 161.582 C 675.688 159.743, 667.498 159.536, 662.500 161.229 M 233 207.973 L 233 254 246.981 254 C 260.651 254, 260.974 253.950, 261.509 251.750 C 261.809 250.512, 261.930 229.925, 261.778 206 L 261.500 162.500 247.250 162.223 L 233 161.945 233 207.973 M 996.500 169.897 C 995.400 170.356, 991.467 171.052, 987.761 171.444 C 984.054 171.836, 980.765 172.572, 980.452 173.078 C 980.138 173.585, 979.078 174, 978.096 174 C 974.188 174, 973 177.106, 973 187.329 C 973 194.877, 973.302 197, 974.378 197 C 975.135 197, 976.252 196.401, 976.860 195.668 C 977.836 194.493, 981.060 193.311, 992.571 189.908 C 994.260 189.409, 999.447 189, 1004.098 189 C 1012.363 189, 1014.895 189.782, 1018.529 193.459 C 1019.924 194.871, 1021.977 201.896, 1021.145 202.411 C 1020.778 202.637, 1017.557 203.344, 1013.989 203.981 C 1010.420 204.618, 1005.328 205.558, 1002.674 206.070 C 1000.019 206.581, 996.644 206.996, 995.174 206.990 C 993.703 206.985, 988.937 208.222, 984.581 209.740 C 978.170 211.975, 975.809 213.407, 972.179 217.266 C 965.188 224.699, 964.657 226.150, 964.574 238.032 C 964.500 248.555, 964.503 248.569, 968.057 253.517 C 970.272 256.601, 973.851 259.796, 977.539 261.985 C 983.139 265.307, 983.959 265.500, 992.482 265.500 C 1000.611 265.500, 1002.157 265.181, 1008.161 262.263 C 1012.814 260.001, 1015.475 257.967, 1016.992 255.513 C 1020.135 250.428, 1021.594 250.985, 1021.543 257.250 L 1021.500 262.500 1034.831 262.780 L 1048.162 263.059 1047.727 229.280 C 1047.206 188.859, 1046.886 187.309, 1037.141 177.978 C 1032.079 173.132, 1030.502 172.236, 1024.915 171.030 C 1017.409 169.411, 999.391 168.692, 996.500 169.897 M 1117 170.660 C 1110.762 172.335, 1106.208 176.148, 1103.374 182.065 C 1102.343 184.216, 1101.162 185.982, 1100.750 185.989 C 1100.338 185.995, 1100 182.625, 1100 178.500 L 1100 171 1085.500 171 L 1071 171 1071 217 L 1071 263 1085.500 263 L 1100 263 1100 237.547 C 1100 220.789, 1100.390 211.139, 1101.141 209.297 C 1104.530 200.985, 1105.446 199.673, 1109.778 196.926 C 1113.580 194.515, 1115.466 194, 1120.496 194 C 1123.853 194, 1127.110 194.510, 1127.733 195.133 C 1128.356 195.756, 1129.571 195.995, 1130.433 195.664 C 1131.734 195.165, 1132 193.048, 1132 183.192 C 1132 171.442, 1131.974 171.309, 1129.453 170.161 C 1126.260 168.706, 1123.922 168.800, 1117 170.660 M 550.500 180.542 C 545.143 183.187, 540.891 188.794, 539.691 194.795 L 539.050 198 556.025 198 L 573 198 573 194.059 C 573 191.891, 572.550 189.840, 572 189.500 C 571.450 189.160, 571 188.062, 571 187.060 C 571 184.158, 561.499 177.944, 557.203 178.037 C 556.266 178.057, 553.250 179.184, 550.500 180.542 M 323.883 183.702 C 316.025 189.099, 313.218 197.842, 314.311 213.513 C 315.126 225.207, 317.029 228.939, 323.904 232.324 C 327.616 234.152, 337.505 234.610, 338.500 233 C 338.840 232.450, 339.954 232, 340.975 232 C 342.861 232, 347.619 226.552, 349.709 222 C 355.218 209.998, 353.198 192.214, 345.506 185 C 343.186 182.824, 341.781 182.461, 334.670 182.202 C 328.104 181.963, 325.986 182.257, 323.883 183.702 M 440.438 182.625 C 439.305 182.880, 437.730 184.032, 436.938 185.184 C 436.147 186.336, 434.573 188.453, 433.440 189.889 C 432.306 191.325, 430.844 194.352, 430.190 196.616 C 428.745 201.613, 428.602 219.636, 430 220.500 C 430.550 220.840, 431 221.791, 431 222.612 C 431 225.105, 436.287 231.034, 439.872 232.562 C 444.385 234.486, 451.913 234.381, 456.096 232.336 C 463.859 228.542, 467.091 220.850, 467.161 206 C 467.201 197.650, 466.807 194.579, 465.235 191 C 462.062 183.774, 460.208 182.675, 450.722 182.399 C 446.200 182.267, 441.572 182.369, 440.438 182.625 M 1012 220.662 C 997.617 221.661, 991 226.008, 991 234.458 C 991 238.025, 991.576 239.422, 994.077 241.923 C 996.835 244.681, 997.781 245, 1003.209 245 C 1013.380 245, 1018.843 240.223, 1021.084 229.370 C 1022.549 222.279, 1021.961 219.931, 1018.781 220.175 C 1017.527 220.271, 1014.475 220.490, 1012 220.662" stroke="none" fill="#141b66" fill-rule="evenodd"/><path d="M -0 86.559 C -0 144.010, 0.336 172.910, 1 172.500 C 1.550 172.160, 2 171.181, 2 170.325 C 2 169.469, 2.776 166.458, 3.724 163.634 C 7.388 152.724, 20.922 136.865, 31.120 131.532 C 34 130.027, 37.064 128.427, 37.928 127.977 C 38.793 127.528, 42.200 126.111, 45.500 124.830 C 51.070 122.667, 52.861 122.507, 70.500 122.595 C 86.750 122.676, 90.224 122.969, 94.500 124.625 L 99.500 126.560 99.778 140.280 C 99.931 147.826, 99.789 154, 99.462 154 C 99.136 154, 97.896 153.480, 96.708 152.844 C 92.649 150.671, 76.880 147.082, 71.193 147.035 C 66.714 146.999, 58.623 148.542, 55.967 149.939 C 55.124 150.383, 53.006 151.059, 51.260 151.443 C 47.875 152.186, 37.210 162.305, 35.613 166.288 C 35.125 167.505, 33.805 170.525, 32.680 173 C 31.006 176.684, 30.629 179.587, 30.607 189 C 30.581 200.282, 31.200 203.507, 35.118 212.500 C 37.227 217.342, 45.933 225.095, 52.714 228.170 C 58.264 230.686, 60.091 231, 69.200 231 C 80.073 231, 90.735 228.558, 96.154 224.828 C 97.614 223.822, 99.089 223, 99.433 223 C 99.776 223, 99.931 229.184, 99.778 236.742 L 99.500 250.484 90 253.175 C 81.611 255.552, 78.685 255.874, 64.988 255.933 C 51.099 255.993, 48.652 255.738, 41.599 253.500 C 37.267 252.125, 33.303 251, 32.791 251 C 31.768 251, 23.943 245.775, 20.128 242.545 C 17.555 240.366, 17.110 239.898, 13.911 236 C 12.782 234.625, 10.878 232.372, 9.679 230.993 C 6.924 227.824, 5.667 225.171, 2.926 216.750 C 1.718 213.037, 0.566 210, 0.365 210 C 0.164 210, 0 237.900, 0 272.001 L 0 334.002 600.250 333.751 L 1200.500 333.500 1200.810 280 C 1200.980 250.575, 1200.819 218.722, 1200.451 209.215 L 1199.782 191.930 1190.141 192.215 L 1180.500 192.500 1180.189 210.500 C 1179.731 237.019, 1181.765 243.094, 1191.195 243.373 C 1193.563 243.443, 1196.513 243.132, 1197.750 242.683 C 1199.992 241.868, 1200 241.903, 1200 252.311 L 1200 262.757 1196.750 264.129 C 1194.645 265.017, 1189.623 265.491, 1182.500 265.476 C 1172.260 265.453, 1171.120 265.248, 1166 262.507 C 1159.703 259.137, 1157.267 256.463, 1154.641 250.045 C 1153.043 246.138, 1152.710 241.748, 1152.267 218.790 L 1151.752 192.080 1144.126 191.790 L 1136.500 191.500 1136.215 181.250 L 1135.930 171 1143.965 171 L 1152 171 1152 161.170 L 1152 151.340 1162.250 148.067 C 1167.888 146.266, 1173.281 144.390, 1174.236 143.897 C 1175.191 143.404, 1176.866 143, 1177.958 143 C 1179.829 143, 1179.960 143.794, 1180.222 156.750 L 1180.500 170.500 1190.752 171 L 1201.005 171.500 1201.002 85.750 L 1201 0 1018.441 0 C 896.990 0, 836.089 0.335, 836.500 1 C 836.840 1.550, 837.682 2, 838.371 2 C 842.098 2, 852.324 9.397, 856.509 15.120 C 863.751 25.023, 866.611 38.167, 865.444 56.181 L 864.743 67 897.371 67 L 930 67 929.997 73.250 C 929.996 76.688, 930.423 84.225, 930.947 90 C 932.581 108.024, 933.917 127.687, 935.023 150 C 936.261 174.956, 937.696 198.294, 939.083 216 C 941.172 242.675, 944.741 298.662, 945.504 316.750 L 946.149 332 824.633 332 C 757.800 332, 702.932 331.663, 702.704 331.250 C 702.477 330.837, 702.679 323.525, 703.154 315 C 705.598 271.171, 707.153 245.174, 708.059 233 C 708.612 225.575, 709.521 212.975, 710.079 205 C 710.637 197.025, 711.472 185.100, 711.934 178.500 C 714.151 146.825, 715.120 131.329, 716.498 105.500 C 717.320 90.100, 718.281 75.144, 718.634 72.264 L 719.275 67.028 750.388 66.764 L 781.500 66.500 781.743 61.500 C 782.274 50.544, 785.245 35.738, 787.938 30.623 C 795.423 16.407, 804.509 6.915, 814.075 3.319 C 817.547 2.014, 820.600 0.733, 820.860 0.473 C 821.121 0.213, 636.533 -0, 410.667 -0 L 0 0 -0 86.559 M 0.478 87 C 0.478 134.575, 0.600 154.038, 0.750 130.250 C 0.899 106.463, 0.899 67.538, 0.750 43.750 C 0.600 19.963, 0.478 39.425, 0.478 87 M 819.500 8.369 C 814.738 10.164, 805.096 16.355, 804.499 18 C 804.199 18.825, 802.239 21.424, 800.142 23.776 C 794.930 29.622, 788.969 47.468, 788.987 57.168 C 789.008 67.967, 785.717 67, 822.452 67 C 853.868 67, 854.738 66.947, 856.579 64.913 C 858.237 63.080, 858.470 61.137, 858.484 48.963 C 858.495 39.188, 858.131 34.732, 857.250 33.850 C 856.563 33.163, 856 31.488, 856 30.130 C 856 27.154, 849.173 16.219, 846.842 15.462 C 845.931 15.166, 844.936 14.276, 844.632 13.483 C 844.328 12.691, 841.727 10.908, 838.852 9.521 C 833.139 6.765, 825.036 6.283, 819.500 8.369 M 794.042 79.282 C 794.019 80.262, 794.634 82.583, 795.410 84.438 C 796.632 87.364, 796.625 88.091, 795.353 89.906 C 793.221 92.951, 791.648 92.497, 789.193 88.130 C 786.072 82.577, 784.345 81.337, 783.489 84.034 C 782.459 87.281, 783.851 92.850, 785.977 93.988 C 790.542 96.431, 798.007 94.475, 799.890 90.343 C 801.564 86.669, 801.302 85.676, 797.542 81.417 C 794.984 78.520, 794.072 77.964, 794.042 79.282 M 846.484 81.201 C 844.250 83.856, 843.881 85.075, 844.319 88.345 C 845.052 93.809, 848.731 95.836, 855.582 94.551 C 860.182 93.688, 862.572 88.940, 860.869 84.053 C 859.971 81.477, 859.529 81.146, 858.325 82.145 C 857.524 82.810, 856.211 84.625, 855.408 86.177 C 853.833 89.224, 851.530 89.718, 848.750 87.608 C 846.611 85.984, 846.570 85.287, 848.500 83.357 C 849.832 82.025, 850.651 78, 849.589 78 C 849.363 78, 847.966 79.441, 846.484 81.201 M 120.471 117.222 C 120.202 117.925, 120.099 148.875, 120.241 186 L 120.500 253.500 134.750 253.777 L 149 254.055 149 224.994 C 149 196.008, 149.006 195.921, 151.476 191.217 C 155.647 183.271, 156.230 182.832, 163.355 182.260 C 172.579 181.519, 174.471 182.244, 177.714 187.760 L 180.500 192.500 181 223 L 181.500 253.500 195.250 253.778 L 209 254.056 209.027 220.278 C 209.053 187.917, 208.958 186.190, 206.777 179.121 C 202.674 165.824, 194.053 159.915, 178.588 159.801 C 168.020 159.723, 161.678 162.129, 154.766 168.840 L 149.031 174.406 148.766 145.453 L 148.500 116.500 134.729 116.222 C 124.265 116.010, 120.842 116.250, 120.471 117.222 M 241.676 117.677 C 240.124 117.936, 237.086 119.914, 234.926 122.074 C 231.395 125.605, 231 126.507, 231 131.050 C 231 139.512, 234.017 143.313, 242.747 145.846 C 246.001 146.790, 247.989 146.811, 251.247 145.936 C 253.586 145.307, 255.725 144.502, 256 144.147 C 256.275 143.791, 257.400 143.009, 258.500 142.409 C 261.011 141.040, 263.889 135.387, 263.952 131.700 C 264.067 124.989, 257.196 118.372, 249.366 117.653 C 246.690 117.408, 243.229 117.419, 241.676 117.677 M 761.241 155.817 C 760.250 156.456, 760.037 167.984, 760.241 210.064 L 760.500 263.500 772 263.500 L 783.500 263.500 783.795 227.500 L 784.090 191.500 787.106 199.500 C 788.766 203.900, 790.957 209.525, 791.977 212 C 792.996 214.475, 795.258 220.775, 797.004 226 C 805.646 251.867, 808.439 259.687, 809.774 261.750 C 811.122 263.833, 811.963 264, 821.092 264 C 832.554 264, 832.735 263.865, 835.462 253.220 C 836.346 249.766, 837.561 245.716, 838.160 244.220 C 838.759 242.724, 839.589 240.600, 840.005 239.500 C 840.420 238.400, 841.452 235.700, 842.297 233.500 C 843.141 231.300, 845.019 225.675, 846.470 221 C 847.921 216.325, 850.254 209.575, 851.655 206 C 853.056 202.425, 854.719 197.400, 855.352 194.833 C 855.984 192.266, 856.726 189.940, 857.001 189.665 C 857.275 189.389, 857.360 204.964, 857.190 224.275 C 857.019 243.585, 857.144 260.437, 857.466 261.722 C 858.048 264.038, 858.171 264.057, 870.777 263.780 L 883.500 263.500 883.759 210.064 C 883.963 167.979, 883.750 156.459, 882.759 155.830 C 880.592 154.454, 849.592 154.827, 847.861 156.250 C 847.024 156.938, 845.770 159.525, 845.074 162 C 843.922 166.098, 839.941 177.563, 837.957 182.500 C 837.514 183.600, 836.247 187.425, 835.139 191 C 834.032 194.575, 831.728 201.100, 830.019 205.500 C 828.311 209.900, 825.890 217.271, 824.640 221.881 L 822.367 230.262 818.625 218.381 C 816.567 211.846, 813.530 202.900, 811.876 198.500 C 810.222 194.100, 807.733 186.900, 806.345 182.500 C 803.555 173.655, 802.373 170.359, 798.814 161.500 L 796.403 155.500 779.452 155.252 C 770.128 155.116, 761.934 155.370, 761.241 155.817 M 338.500 160.062 C 328.050 162.069, 325.666 163.128, 320.612 168.008 L 315.500 172.944 315.200 167.472 L 314.900 162 299.950 162 L 285 162 285 229.527 L 285 297.053 299.750 296.777 L 314.500 296.500 314.767 270.777 L 315.034 245.053 317.875 248.027 C 319.438 249.662, 321.198 251, 321.787 251 C 322.376 251, 323.452 251.568, 324.179 252.262 C 327.043 254.997, 331.428 256, 340.517 256 C 348.445 256, 350.808 255.603, 355.406 253.500 C 358.412 252.125, 361.248 251, 361.707 251 C 362.167 251, 364.783 248.489, 367.521 245.419 C 370.260 242.349, 373.063 239.232, 373.750 238.490 C 374.438 237.749, 375 236.841, 375 236.473 C 375 236.104, 375.622 234.384, 376.383 232.651 C 380.966 222.206, 382.175 215.609, 381.730 203.477 C 381.321 192.315, 380.558 188.210, 377.738 181.985 C 376.869 180.068, 375.881 177.528, 375.541 176.341 C 374.465 172.581, 363.892 163.079, 360 162.373 C 358.075 162.025, 356.050 161.410, 355.500 161.007 C 353.901 159.836, 342.869 159.222, 338.500 160.062 M 455.500 159.671 C 446.569 160.836, 440.747 163.470, 435.494 168.724 C 432.592 171.626, 429.943 174, 429.609 174 C 429.274 174, 429 171.300, 429 168 L 429 162 414.493 162 L 399.986 162 400.243 229.250 L 400.500 296.500 414.750 296.777 L 429 297.055 429 271.027 C 429 256.712, 429.316 245, 429.702 245 C 430.089 245, 431.776 246.296, 433.452 247.879 C 435.129 249.462, 438.653 251.937, 441.285 253.379 C 445.490 255.682, 447.213 256, 455.470 256 C 463.390 256, 465.862 255.582, 471.184 253.344 C 478.970 250.070, 487.349 241.703, 491.851 232.707 C 498.358 219.703, 498.459 190.779, 492.039 178.574 C 487.585 170.108, 480.636 163.830, 473.483 161.812 C 466.715 159.902, 459.924 159.094, 455.500 159.671 M 550.500 160.030 C 541.505 161.412, 536.815 163.016, 531.549 166.511 C 522.136 172.759, 517.442 179.115, 513.671 190.715 C 511.487 197.432, 511 200.793, 511 209.144 C 511 214.762, 511.524 220.965, 512.164 222.929 C 516.523 236.294, 517.271 237.749, 522.592 243.198 C 527.455 248.179, 530.439 250.127, 537.500 252.929 C 543.760 255.414, 547.856 256.003, 559.071 256.035 C 569.720 256.064, 572.896 255.671, 581.250 253.291 L 591 250.513 591 240.256 C 591 234.615, 590.792 230, 590.538 230 C 590.283 230, 587.696 230.829, 584.788 231.843 C 573.877 235.646, 572.178 236, 564.849 236 C 554.155 236, 546.479 232.817, 542.815 226.863 C 541.338 224.463, 539.988 221.150, 539.815 219.500 L 539.500 216.500 569.500 216 L 599.500 215.500 599.438 205 C 599.371 193.694, 596.719 182.470, 592.704 176.500 C 588.895 170.837, 580.848 164.031, 576.605 162.884 C 574.347 162.275, 571.375 161.410, 570 160.964 C 566.031 159.676, 555.951 159.193, 550.500 160.030 M 662.500 161.229 C 660.850 161.789, 658.516 162.618, 657.313 163.073 C 655.377 163.805, 649.651 170.332, 646.309 175.616 C 645.325 177.171, 645.107 176.148, 645.059 169.750 L 645 162 630.490 162 L 615.980 162 616.240 207.750 L 616.500 253.500 630.750 253.777 L 645 254.055 645 228.556 C 645 203.864, 645.075 202.890, 647.375 197.779 C 650.336 191.196, 655.571 186.123, 660.628 184.934 C 664.687 183.980, 672.269 184.617, 675.250 186.163 C 676.870 187.003, 677 186.180, 677 175.117 C 677 168.543, 676.727 162.452, 676.393 161.582 C 675.688 159.743, 667.498 159.536, 662.500 161.229 M 233 207.973 L 233 254 246.981 254 C 260.651 254, 260.974 253.950, 261.509 251.750 C 261.809 250.512, 261.930 229.925, 261.778 206 L 261.500 162.500 247.250 162.223 L 233 161.945 233 207.973 M 996.500 169.897 C 995.400 170.356, 991.467 171.052, 987.761 171.444 C 984.054 171.836, 980.765 172.572, 980.452 173.078 C 980.138 173.585, 979.078 174, 978.096 174 C 974.188 174, 973 177.106, 973 187.329 C 973 194.877, 973.302 197, 974.378 197 C 975.135 197, 976.252 196.401, 976.860 195.668 C 977.836 194.493, 981.060 193.311, 992.571 189.908 C 994.260 189.409, 999.447 189, 1004.098 189 C 1012.363 189, 1014.895 189.782, 1018.529 193.459 C 1019.924 194.871, 1021.977 201.896, 1021.145 202.411 C 1020.778 202.637, 1017.557 203.344, 1013.989 203.981 C 1010.420 204.618, 1005.328 205.558, 1002.674 206.070 C 1000.019 206.581, 996.644 206.996, 995.174 206.990 C 993.703 206.985, 988.937 208.222, 984.581 209.740 C 978.170 211.975, 975.809 213.407, 972.179 217.266 C 965.188 224.699, 964.657 226.150, 964.574 238.032 C 964.500 248.555, 964.503 248.569, 968.057 253.517 C 970.272 256.601, 973.851 259.796, 977.539 261.985 C 983.139 265.307, 983.959 265.500, 992.482 265.500 C 1000.611 265.500, 1002.157 265.181, 1008.161 262.263 C 1012.814 260.001, 1015.475 257.967, 1016.992 255.513 C 1020.135 250.428, 1021.594 250.985, 1021.543 257.250 L 1021.500 262.500 1034.831 262.780 L 1048.162 263.059 1047.727 229.280 C 1047.206 188.859, 1046.886 187.309, 1037.141 177.978 C 1032.079 173.132, 1030.502 172.236, 1024.915 171.030 C 1017.409 169.411, 999.391 168.692, 996.500 169.897 M 1117 170.660 C 1110.762 172.335, 1106.208 176.148, 1103.374 182.065 C 1102.343 184.216, 1101.162 185.982, 1100.750 185.989 C 1100.338 185.995, 1100 182.625, 1100 178.500 L 1100 171 1085.500 171 L 1071 171 1071 217 L 1071 263 1085.500 263 L 1100 263 1100 237.547 C 1100 220.789, 1100.390 211.139, 1101.141 209.297 C 1104.530 200.985, 1105.446 199.673, 1109.778 196.926 C 1113.580 194.515, 1115.466 194, 1120.496 194 C 1123.853 194, 1127.110 194.510, 1127.733 195.133 C 1128.356 195.756, 1129.571 195.995, 1130.433 195.664 C 1131.734 195.165, 1132 193.048, 1132 183.192 C 1132 171.442, 1131.974 171.309, 1129.453 170.161 C 1126.260 168.706, 1123.922 168.800, 1117 170.660 M 550.500 180.542 C 545.143 183.187, 540.891 188.794, 539.691 194.795 L 539.050 198 556.025 198 L 573 198 573 194.059 C 573 191.891, 572.550 189.840, 572 189.500 C 571.450 189.160, 571 188.062, 571 187.060 C 571 184.158, 561.499 177.944, 557.203 178.037 C 556.266 178.057, 553.250 179.184, 550.500 180.542 M 323.883 183.702 C 316.025 189.099, 313.218 197.842, 314.311 213.513 C 315.126 225.207, 317.029 228.939, 323.904 232.324 C 327.616 234.152, 337.505 234.610, 338.500 233 C 338.840 232.450, 339.954 232, 340.975 232 C 342.861 232, 347.619 226.552, 349.709 222 C 355.218 209.998, 353.198 192.214, 345.506 185 C 343.186 182.824, 341.781 182.461, 334.670 182.202 C 328.104 181.963, 325.986 182.257, 323.883 183.702 M 440.438 182.625 C 439.305 182.880, 437.730 184.032, 436.938 185.184 C 436.147 186.336, 434.573 188.453, 433.440 189.889 C 432.306 191.325, 430.844 194.352, 430.190 196.616 C 428.745 201.613, 428.602 219.636, 430 220.500 C 430.550 220.840, 431 221.791, 431 222.612 C 431 225.105, 436.287 231.034, 439.872 232.562 C 444.385 234.486, 451.913 234.381, 456.096 232.336 C 463.859 228.542, 467.091 220.850, 467.161 206 C 467.201 197.650, 466.807 194.579, 465.235 191 C 462.062 183.774, 460.208 182.675, 450.722 182.399 C 446.200 182.267, 441.572 182.369, 440.438 182.625 M 0.470 272 C 0.470 306.375, 0.596 320.438, 0.749 303.250 C 0.903 286.062, 0.903 257.937, 0.749 240.750 C 0.596 223.563, 0.470 237.625, 0.470 272 M 1012 220.662 C 997.617 221.661, 991 226.008, 991 234.458 C 991 238.025, 991.576 239.422, 994.077 241.923 C 996.835 244.681, 997.781 245, 1003.209 245 C 1013.380 245, 1018.843 240.223, 1021.084 229.370 C 1022.549 222.279, 1021.961 219.931, 1018.781 220.175 C 1017.527 220.271, 1014.475 220.490, 1012 220.662" stroke="none" fill="#f8f8f8" fill-rule="evenodd"/></svg>